<svg 
data-v-423bf9ae="" 
xmlns="http://www.w3.org/2000/svg" 
viewBox="0 0 296 107" 
class="iconLeft"><!----><!----><!----><g data-v-423bf9ae="" id="3c8a0342-040d-4340-a00a-930c745ec06c" 
fill="white" 
transform="matrix(6.08519290965367,0,0,6.08519290965367,99.45720355594828,-0.7018251126411599)">
<path d="M8.26 4.37L8.26 3.92L0.46 3.92L0.46 4.37L4.09 4.37L4.09 13.58L4.62 13.58L4.62 4.37ZM11.19 6.01C9.00 6.01 7.67 7.62 7.67 9.90C7.67 12.17 9.00 13.78 11.19 13.78C13.37 13.78 14.70 12.17 14.70 9.90C14.70 7.62 13.37 6.01 11.19 6.01ZM11.19 13.33C9.62 13.33 8.26 12.18 8.26 9.90C8.26 7.60 9.62 6.45 11.19 6.45C12.75 6.45 14.13 7.60 14.13 9.90C14.13 12.18 12.75 13.33 11.19 13.33ZM20.38 3.95C19.99 3.92 19.77 3.92 19.31 3.92L16.48 3.92L16.48 13.58L19.29 13.58C19.75 13.58 20.03 13.58 20.52 13.52C22.05 13.34 24.21 11.96 24.21 8.69C24.21 5.40 22.05 4.10 20.38 3.95ZM20.45 13.05C20.03 13.10 19.73 13.12 19.26 13.12L17.01 13.12L17.01 4.38L19.29 4.38C19.80 4.38 20.03 4.38 20.34 4.42C21.90 4.59 23.62 5.88 23.62 8.69C23.62 11.44 22.01 12.85 20.45 13.05ZM28.67 6.01C26.49 6.01 25.16 7.62 25.16 9.90C25.16 12.17 26.49 13.78 28.67 13.78C30.86 13.78 32.19 12.17 32.19 9.90C32.19 7.62 30.86 6.01 28.67 6.01ZM28.67 13.33C27.10 13.33 25.75 12.18 25.75 9.90C25.75 7.60 27.10 6.45 28.67 6.45C30.24 6.45 31.61 7.60 31.61 9.90C31.61 12.18 30.24 13.33 28.67 13.33Z">
</path>
</g><!---->
<g 
data-v-423bf9ae="" 
id="4e6ae724-4da3-4a9b-8769-e38c47efac6f" 
transform="matrix(1.0868111504448785,0,0,1.0868111504448785,-13.255261890115804,-0.23894260335429607)" 
stroke="white" 
fill="white">
<g 
clip-rule="evenodd">
<path 
d="M12.983 10.59l17.018 88.223-5.872-59.049 29.021-1.892-.054-9.883L64.549 1 53.622 18.977z">
</path><path d="M59.389 54.548l5.16-53.541-8.74 39.716-19.612 1.045 1.57 20.462-7.766 36.583 12.057-39.899z"></path><path d="M62.8 67.182l.549-10.453-15.979 3.755-.032 11.797-17.337 26.532 21.68-27.616zM65.711 62.394l14.841-4.731 1.509-12.532-15.899 2.095zM72.07 44.502l10.988-1.417 1.581-10.278-8.079-.373L64.549 1l8.43 30.967z"></path><path d="M87.413 31.294l1.256-9.506-9.544-2.694L64.549 1l14.483 22.437-.422 7z"></path></g></g><!----></svg>